<svg xmlns="http://www.w3.org/2000/svg" version="1.1" xmlns:xlink="http://www.w3.org/1999/xlink" xmlns:svgjs="http://svgjs.dev/svgjs" width="1000" height="750" viewBox="0 0 1000 750"><rect width="1000" height="750" fill="#ffffff"></rect><g transform="matrix(0.5845845845845846,0,0,0.5845845845845846,207.58158741832204,82.87400583090377)"><svg viewBox="0 0 343 343" data-background-color="#ffffff" preserveAspectRatio="xMidYMid meet" height="999" width="1000" xmlns="http://www.w3.org/2000/svg" xmlns:xlink="http://www.w3.org/1999/xlink"><g id="tight-bounds" transform="matrix(1,0,0,1,0.0740000000000407,0.07400000000001228)"><svg viewBox="0 0 342.85155851775386 342.85155851775386" height="342.85155851775386" width="342.85155851775386"><g><svg></svg></g><g><svg viewBox="0 0 342.85155851775386 342.85155851775386" height="342.85155851775386" width="342.85155851775386"><g><path d="M0 171.426c0-94.676 76.75-171.426 171.426-171.426 94.676 0 171.426 76.75 171.426 171.426 0 94.676-76.75 171.426-171.426 171.426-94.676 0-171.426-76.75-171.426-171.426zM171.426 341.269c93.802 0 169.843-76.041 169.843-169.843 0-93.802-76.041-169.843-169.843-169.843-93.802 0-169.843 76.041-169.843 169.843 0 93.802 76.041 169.843 169.843 169.843z" data-fill-palette-color="tertiary" fill="#000000" stroke="transparent"></path><ellipse rx="164.56874808852186" ry="164.56874808852186" cx="171.42577925887693" cy="171.42577925887693" fill="#000000" stroke="transparent" stroke-width="0" fill-opacity="1" data-fill-palette-color="tertiary"></ellipse></g><g transform="matrix(1,0,0,1,64.84655864529837,130.59442679219103)"><svg viewBox="0 0 213.1584412271571 81.66270493337177" height="81.66270493337177" width="213.1584412271571"><g><svg viewBox="0 0 213.1584412271571 81.66270493337177" height="81.66270493337177" width="213.1584412271571"><g><svg viewBox="0 0 213.1584412271571 81.66270493337177" height="81.66270493337177" width="213.1584412271571"><g transform="matrix(1,0,0,1,0,49.11905132231246)"><svg viewBox="0 0 213.1584412271571 32.54365361105931" height="32.54365361105931" width="213.1584412271571"><g id="textblocktransform"><svg viewBox="0 0 213.1584412271571 32.54365361105931" height="32.54365361105931" width="213.1584412271571" id="textblock"><g><svg viewBox="0 0 213.1584412271571 17.552491705334255" height="17.552491705334255" width="213.1584412271571"><g transform="matrix(1,0,0,1,0,0)"><svg width="213.1584412271571" viewBox="-0.550000011920929 -35.75 434.1199951171875 35.75" height="17.552491705334255" data-palette-color="url(#894288bd-0cf7-4dbc-9070-78bdcaf9d594)"></svg></g></svg></g><g transform="matrix(1,0,0,1,0,21.696213737162743)"><svg viewBox="0 0 213.1584412271571 10.847439873896569" height="10.847439873896569" width="213.1584412271571"><g transform="matrix(1,0,0,1,0,0)"><svg width="213.1584412271571" viewBox="2.8499999046325684 -35.29999923706055 700.5400390625 35.64999771118164" height="10.847439873896569" data-palette-color="url(#894288bd-0cf7-4dbc-9070-78bdcaf9d594)"></svg></g></svg></g></svg></g></svg></g><g transform="matrix(1,0,0,1,81.05426278578197,0)"><svg viewBox="0 0 51.04991565559317 44.97532929048397" height="44.97532929048397" width="51.04991565559317"><g><svg xmlns="http://www.w3.org/2000/svg" xmlns:xlink="http://www.w3.org/1999/xlink" version="1.1" x="0" y="0" viewBox="6.300000190734863 11.5 87.39999389648438 77" style="enable-background:new 0 0 100 100;" xml:space="preserve" height="44.97532929048397" width="51.04991565559317" class="icon-icon-0" data-fill-palette-color="quaternary" id="icon-0"></svg></g></svg></g><g></g></svg></g></svg></g></svg></g></svg></g><defs></defs><rect width="342.85198974609375" height="342.85198974609375" fill="#ffffff" mask="url(&quot;#b0b276e2-5bc3-483c-b5b1-c75d60483f67&quot;)" data-fill-palette-color="quaternary"></rect><mask id="b0b276e2-5bc3-483c-b5b1-c75d60483f67"><g id="SvgjsG1069"><svg viewBox="0 0 342.85155851775386 342.85155851775386" height="342.85155851775386" width="342.85155851775386"><g><svg></svg></g><g><svg viewBox="0 0 342.85155851775386 342.85155851775386" height="342.85155851775386" width="342.85155851775386"><g><path d="M0 171.426c0-94.676 76.75-171.426 171.426-171.426 94.676 0 171.426 76.75 171.426 171.426 0 94.676-76.75 171.426-171.426 171.426-94.676 0-171.426-76.75-171.426-171.426zM171.426 341.269c93.802 0 169.843-76.041 169.843-169.843 0-93.802-76.041-169.843-169.843-169.843-93.802 0-169.843 76.041-169.843 169.843 0 93.802 76.041 169.843 169.843 169.843z" fill="black" stroke="transparent"></path><ellipse rx="164.56874808852186" ry="164.56874808852186" cx="171.42577925887693" cy="171.42577925887693" fill="black" stroke="transparent" stroke-width="0" fill-opacity="1"></ellipse></g><g transform="matrix(1,0,0,1,64.84655864529837,130.59442679219103)"><svg viewBox="0 0 213.1584412271571 81.66270493337177" height="81.66270493337177" width="213.1584412271571"><g><svg viewBox="0 0 213.1584412271571 81.66270493337177" height="81.66270493337177" width="213.1584412271571"><g><svg viewBox="0 0 213.1584412271571 81.66270493337177" height="81.66270493337177" width="213.1584412271571"><g transform="matrix(1,0,0,1,0,49.11905132231246)"><svg viewBox="0 0 213.1584412271571 32.54365361105931" height="32.54365361105931" width="213.1584412271571"><g id="SvgjsG1068"><svg viewBox="0 0 213.1584412271571 32.54365361105931" height="32.54365361105931" width="213.1584412271571" id="SvgjsSvg1067"><g><svg viewBox="0 0 213.1584412271571 17.552491705334255" height="17.552491705334255" width="213.1584412271571"><g transform="matrix(1,0,0,1,0,0)"><svg width="213.1584412271571" viewBox="-0.550000011920929 -35.75 434.1199951171875 35.75" height="17.552491705334255" data-palette-color="url(#894288bd-0cf7-4dbc-9070-78bdcaf9d594)"><path d="M12.1-2.15L33.85-2.15 33.85 0-0.55 0-0.55-2.15 4.3-2.15 4.3-34.95 16.65-34.95Q24.7-34.95 28.38-31.83 32.05-28.7 32.05-22.23 32.05-15.75 28.28-12.75 24.5-9.75 16.75-9.75L16.75-9.75 12.1-9.75 12.1-2.15ZM17.35-16.5Q21.25-16.5 22.65-18.07 24.05-19.65 24.05-22.68 24.05-25.7 22.23-26.98 20.4-28.25 16.55-28.25L16.55-28.25 12.1-28.25 12.1-16.5 17.35-16.5ZM64-2.15L75.15-2.15 75.15 0 33.85 0 33.85-2.15 45-2.15Q40.9-4.5 38.52-8.6 36.15-12.7 36.15-17.7L36.15-17.7Q36.15-25.4 41.45-30.58 46.75-35.75 54.5-35.75 62.25-35.75 67.55-30.58 72.85-25.4 72.85-17.7L72.85-17.7Q72.85-12.7 70.45-8.6 68.05-4.5 64-2.15L64-2.15ZM64.9-17.68Q64.9-22.35 61.9-25.65 58.9-28.95 54.52-28.95 50.15-28.95 47.15-25.65 44.15-22.35 44.15-17.68 44.15-13 47.15-9.73 50.15-6.45 54.52-6.45 58.9-6.45 61.9-9.73 64.9-13 64.9-17.68ZM100.65-2.15L107.05-2.15 107.05 0 75.15 0 75.15-2.15 81.95-2.15Q79.2-3.55 76.95-5.75L76.95-5.75 81.6-11.45Q87.25-6.5 92.05-6.5L92.05-6.5Q94.2-6.5 95.42-7.43 96.65-8.35 96.65-9.93 96.65-11.5 95.35-12.43 94.05-13.35 90.2-14.3L90.2-14.3Q84.1-15.75 81.27-18.07 78.45-20.4 78.45-25.38 78.45-30.35 82.02-33.05 85.6-35.75 90.95-35.75L90.95-35.75Q94.45-35.75 97.95-34.55 101.45-33.35 104.05-31.15L104.05-31.15 100.1-25.45Q95.55-28.9 90.7-28.9L90.7-28.9Q88.75-28.9 87.62-27.98 86.5-27.05 86.5-25.53 86.5-24 87.87-23.1 89.25-22.2 94.22-20.98 99.2-19.75 101.95-17.3 104.7-14.85 104.7-10.5L104.7-10.5Q104.7-5.1 100.65-2.15L100.65-2.15ZM126.14-2.15L137.44-2.15 137.44 0 107.04 0 107.04-2.15 118.34-2.15 118.34-28.2 108.44-28.2 108.44-34.95 136.04-34.95 136.04-28.2 126.14-28.2 126.14-2.15ZM167.59-2.15L178.74-2.15 178.74 0 137.44 0 137.44-2.15 148.59-2.15Q144.49-4.5 142.12-8.6 139.74-12.7 139.74-17.7L139.74-17.7Q139.74-25.4 145.04-30.58 150.34-35.75 158.09-35.75 165.84-35.75 171.14-30.58 176.44-25.4 176.44-17.7L176.44-17.7Q176.44-12.7 174.04-8.6 171.64-4.5 167.59-2.15L167.59-2.15ZM168.49-17.68Q168.49-22.35 165.49-25.65 162.49-28.95 158.12-28.95 153.74-28.95 150.74-25.65 147.74-22.35 147.74-17.68 147.74-13 150.74-9.73 153.74-6.45 158.12-6.45 162.49-6.45 165.49-9.73 168.49-13 168.49-17.68ZM200.09-2.15L213.14-2.15 213.14 0 178.74 0 178.74-2.15 191.74-2.15 178.59-34.95 187.04-34.95 195.94-12.7 204.84-34.95 213.29-34.95 200.09-2.15ZM212.59-2.15L217.44-2.15 217.44-34.95 242.64-34.95 242.64-28 225.24-28 225.24-20.8 240.89-20.8 240.89-14.15 225.24-14.15 225.24-6.9 243.19-6.9 243.19-2.15 248.04-2.15 248.04 0 212.59 0 212.59-2.15ZM245.28-2.15L250.13-2.15 250.13-34.95 263.38-34.95Q271.53-34.95 275.01-32.2 278.48-29.45 278.48-23.35L278.48-23.35Q278.48-14.95 271.83-12.5L271.83-12.5 279.13-2.15 283.83-2.15 283.83 0 271.08 0 263.33-11.15 257.93-11.15 257.93 0 245.28 0 245.28-2.15ZM263.63-17.9Q267.63-17.9 269.08-19.2 270.53-20.5 270.53-23.33 270.53-26.15 269.03-27.2 267.53-28.25 263.78-28.25L263.78-28.25 257.93-28.25 257.93-17.9 263.63-17.9ZM294.28-2.15L312.78-2.15 312.78 0 282.18 0 282.18-2.15 286.48-2.15 286.48-34.95 310.48-34.95 310.48-28.1 294.28-28.1 294.28-20.55 309.68-20.55 309.68-13.7 294.28-13.7 294.28-2.15ZM339.78-2.15L344.63-2.15 344.63 0 312.23 0 312.23-2.15 317.08-2.15 317.08-34.95 324.88-34.95 324.88-6.95 339.78-6.95 339.78-2.15ZM371.33-2.15L382.48-2.15 382.48 0 341.18 0 341.18-2.15 352.33-2.15Q348.23-4.5 345.85-8.6 343.48-12.7 343.48-17.7L343.48-17.7Q343.48-25.4 348.78-30.58 354.08-35.75 361.83-35.75 369.58-35.75 374.88-30.58 380.18-25.4 380.18-17.7L380.18-17.7Q380.18-12.7 377.78-8.6 375.38-4.5 371.33-2.15L371.33-2.15ZM372.23-17.68Q372.23-22.35 369.23-25.65 366.23-28.95 361.85-28.95 357.48-28.95 354.48-25.65 351.48-22.35 351.48-17.68 351.48-13 354.48-9.73 357.48-6.45 361.85-6.45 366.23-6.45 369.23-9.73 372.23-13 372.23-17.68ZM422.12-2.15L433.42-2.15 433.42 0 415.57 0 407.92-24.3 400.32 0 382.47 0 382.47-2.15 393.77-2.15 382.32-34.95 390.77-34.95 397.67-14.85 403.87-34.95 412.02-34.95 418.17-14.85 425.12-34.95 433.57-34.95 422.12-2.15Z" opacity="1" transform="matrix(1,0,0,1,0,0)" fill="white" class="undefined-text-0" id="SvgjsPath1066"></path></svg></g></svg></g><g transform="matrix(1,0,0,1,0,21.696213737162743)"><svg viewBox="0 0 213.1584412271571 10.847439873896569" height="10.847439873896569" width="213.1584412271571"><g transform="matrix(1,0,0,1,0,0)"><svg width="213.1584412271571" viewBox="2.8499999046325684 -35.29999923706055 700.5400390625 35.64999771118164" height="10.847439873896569" data-palette-color="url(#894288bd-0cf7-4dbc-9070-78bdcaf9d594)"><path d="M14.9 0.35Q11.45 0.35 8.72-0.88 6-2.1 4.45-4.28 2.9-6.45 2.85-9.3L2.85-9.3 7.7-9.3Q7.95-6.85 9.73-5.18 11.5-3.5 14.9-3.5L14.9-3.5Q18.15-3.5 20.03-5.13 21.9-6.75 21.9-9.3L21.9-9.3Q21.9-11.3 20.8-12.55 19.7-13.8 18.05-14.45 16.4-15.1 13.6-15.85L13.6-15.85Q10.15-16.75 8.08-17.65 6-18.55 4.53-20.48 3.05-22.4 3.05-25.65L3.05-25.65Q3.05-28.5 4.5-30.7 5.95-32.9 8.58-34.1 11.2-35.3 14.6-35.3L14.6-35.3Q19.5-35.3 22.63-32.85 25.75-30.4 26.15-26.35L26.15-26.35 21.15-26.35Q20.9-28.35 19.05-29.88 17.2-31.4 14.15-31.4L14.15-31.4Q11.3-31.4 9.5-29.93 7.7-28.45 7.7-25.8L7.7-25.8Q7.7-23.9 8.78-22.7 9.85-21.5 11.43-20.88 13-20.25 15.85-19.45L15.85-19.45Q19.3-18.5 21.4-17.57 23.5-16.65 25-14.73 26.5-12.8 26.5-9.5L26.5-9.5Q26.5-6.95 25.15-4.7 23.8-2.45 21.15-1.05 18.5 0.35 14.9 0.35L14.9 0.35ZM154.91 0.35Q150.06 0.35 146.06-1.93 142.06-4.2 139.73-8.28 137.41-12.35 137.41-17.45L137.41-17.45Q137.41-22.55 139.73-26.63 142.06-30.7 146.06-32.98 150.06-35.25 154.91-35.25L154.91-35.25Q159.81-35.25 163.81-32.98 167.81-30.7 170.11-26.65 172.41-22.6 172.41-17.45L172.41-17.45Q172.41-12.3 170.11-8.25 167.81-4.2 163.81-1.93 159.81 0.35 154.91 0.35L154.91 0.35ZM154.91-3.6Q158.56-3.6 161.48-5.3 164.41-7 166.08-10.15 167.76-13.3 167.76-17.45L167.76-17.45Q167.76-21.65 166.08-24.78 164.41-27.9 161.51-29.6 158.61-31.3 154.91-31.3L154.91-31.3Q151.21-31.3 148.31-29.6 145.41-27.9 143.73-24.78 142.06-21.65 142.06-17.45L142.06-17.45Q142.06-13.3 143.73-10.15 145.41-7 148.33-5.3 151.26-3.6 154.91-3.6L154.91-3.6ZM282.62-17.45Q282.62-22.55 284.92-26.63 287.22-30.7 291.19-33 295.17-35.3 300.02-35.3L300.02-35.3Q305.72-35.3 309.97-32.55 314.22-29.8 316.17-24.75L316.17-24.75 310.72-24.75Q309.27-27.9 306.54-29.6 303.82-31.3 300.02-31.3L300.02-31.3Q296.37-31.3 293.47-29.6 290.57-27.9 288.92-24.78 287.27-21.65 287.27-17.45L287.27-17.45Q287.27-13.3 288.92-10.18 290.57-7.05 293.47-5.35 296.37-3.65 300.02-3.65L300.02-3.65Q303.82-3.65 306.54-5.33 309.27-7 310.72-10.15L310.72-10.15 316.17-10.15Q314.22-5.15 309.97-2.43 305.72 0.3 300.02 0.3L300.02 0.3Q295.17 0.3 291.19-1.98 287.22-4.25 284.92-8.3 282.62-12.35 282.62-17.45L282.62-17.45ZM428.83-34.85L433.38-34.85 433.38 0 428.83 0 428.83-34.85ZM570.43 0L567.63-7.75 552.43-7.75 549.63 0 544.83 0 557.43-34.65 562.68-34.65 575.23 0 570.43 0ZM553.73-11.45L566.33-11.45 560.03-29.05 553.73-11.45ZM691.19-34.85L691.19-3.7 703.39-3.7 703.39 0 686.64 0 686.64-34.85 691.19-34.85Z" opacity="1" transform="matrix(1,0,0,1,0,0)" fill="white" class="undefined-text-1" id="SvgjsPath1065"></path></svg></g></svg></g></svg></g></svg></g><g transform="matrix(1,0,0,1,81.05426278578197,0)"><svg viewBox="0 0 51.04991565559317 44.97532929048397" height="44.97532929048397" width="51.04991565559317"><g><svg xmlns="http://www.w3.org/2000/svg" xmlns:xlink="http://www.w3.org/1999/xlink" version="1.1" x="0" y="0" viewBox="6.300000190734863 11.5 87.39999389648438 77" style="enable-background:new 0 0 100 100;" xml:space="preserve" height="44.97532929048397" width="51.04991565559317" class="icon-icon-0" data-fill-palette-color="quaternary" id="SvgjsSvg1064"><path d="M72.3 12.3L72.3 12.3 72.3 12.3l-0.4-0.8H28.2L6.3 50l21.8 38.5h43.7L93.7 50 72.3 12.3zM33.3 25.3L9.9 47.7l18.6-32.8L33.3 25.3zM70.7 14.8l6.4 35.7L36.9 25.8 70.7 14.8zM35.5 27.3l41 25.2-41 23.3V27.3zM77 54.5l-7.2 30.8-32.6-8.1L77 54.5zM33.5 75L9.9 50.5l23.6-22.7V75zM33.2 77.6l-4.6 7.7L11.5 55.1 33.2 77.6zM35 78.6l31.4 7.9H30.2L35 78.6zM79.3 53.3l11.6-2.5L72.1 84 79.3 53.3zM90.7 48.9l-11.4 2.5-5.9-33.1L90.7 48.9zM35 24.3l-5-10.8h38.2L35 24.3z" fill="white"></path></svg></g></svg></g><g></g></svg></g></svg></g></svg></g></svg></g><defs><mask></mask></defs></svg></g></mask><linearGradient x1="0" x2="1" y1="0.5" y2="0.5" id="894288bd-0cf7-4dbc-9070-78bdcaf9d594"><stop stop-color="#ffa62e" offset="0"></stop><stop stop-color="#f71b3d" offset="1"></stop></linearGradient></svg><rect width="342.85155851775386" height="342.85155851775386" fill="none" stroke="none" visibility="hidden"></rect></g></svg></g></svg>